<?xml version="1.0" encoding="UTF-8"?>
<svg id="Livello_1" data-name="Livello 1" xmlns="http://www.w3.org/2000/svg" viewBox="0 0 302.31 75.81">
  <defs>
    <style>
      .cls-1 {
        fill: #fff;
      }
    </style>
  </defs>
  <path class="cls-1" d="M35.92,1.05l-.23,31.59h-6.09c-2.81-19.54-5.38-25.74-9.83-25.74-3.86,0-6.43,3.74-6.43,30.65s3.04,30.89,8.31,30.89c5.61,0,8.07-4.45,8.07-25.5h6.08c0,22.46-2.34,32.76-16.26,32.76-12.17,0-19.54-7.72-19.54-38.02S5.73.12,16.5.12c6.32,0,8.42,4.8,11,4.8,1.29,0,2.11-.94,2.34-3.86h6.09Z"/>
  <path class="cls-1" d="M61.65,75.81c-14.62,0-20.47-9.13-20.47-37.79.12-28.66,5.85-38.02,20.47-38.02s20.71,9.94,20.71,38.02c-.12,28.08-5.97,37.79-20.71,37.79ZM61.65,6.67c-4.8,0-7.14,5.03-7.14,31.24s2.34,31.24,7.14,31.24c5.03,0,7.26-4.91,7.26-31.24s-2.22-31.24-7.26-31.24Z"/>
  <path class="cls-1" d="M107.17,74.76h-22.11v-6.2c4.09-.82,4.91-6.44,4.91-18.49V14.86c0-7.14.12-7.6-4.91-7.6V1.05h20.59c.35,5.85.82,13.1,7.96,32.29,2.69,7.49,5.03,15.79,6.78,22.93l1.29-.23c-.47-5.15-.7-11.46-.7-16.03,0-23.4-1.99-32.17-9.13-32.76V1.05h19.77v6.2c-3.86.82-5.26,6.2-5.26,18.25,0,19.66.23,37.32,1.17,49.25h-11.93l-13.22-36.5c-2.81-7.72-5.15-18.49-6.9-27.49l-.94.12c.47,5.73.82,13.57.82,20.12,0,25.03,2.34,36.27,11.82,37.55v6.2Z"/>
  <path class="cls-1" d="M139.22,35.8h-5.27V1.05h40.95v34.75h-5.38c-.82-23.75-3.63-28.55-8.66-28.55v50.54c0,10.18,0,10.76,6.9,10.76v6.2h-26.56v-6.2c7.02,0,7.02-.59,7.02-10.76V7.25h-.12c-5.38,0-8.19,4.91-8.89,28.55Z"/>
  <path class="cls-1" d="M186.25,11.82c0-3.51-1.52-4.56-5.85-4.56V1.05h25.74l9.13,59.2c.94,5.38,2.11,7.37,5.03,8.31v6.2h-23.63v-6.2c4.33,0,6.79-2.93,5.85-8.42l-1.64-11.58c-2.11-.12-4.21-.12-6.43-.12h-5.26c-.7,5.97-.94,9.94-.94,12.75,0,4.33,1.52,5.73,4.91,7.37v6.2h-18.84v-6.2c5.27-1.99,11.93-45.74,11.93-56.74ZM200.17,42.7l-4.8-34.39h-1.52c-1.87,15.09-3.16,26.21-4.1,34.39h10.41Z"/>
  <path class="cls-1" d="M256.33,1.05l-.23,31.59h-6.09c-2.81-19.54-5.38-25.74-9.83-25.74-3.86,0-6.43,3.74-6.43,30.65s3.04,30.89,8.31,30.89c5.61,0,8.07-4.45,8.07-25.5h6.08c0,22.46-2.34,32.76-16.26,32.76-12.17,0-19.54-7.72-19.54-38.02S226.15.12,236.91.12c6.32,0,8.42,4.8,11,4.8,1.29,0,2.11-.94,2.34-3.86h6.09Z"/>
  <path class="cls-1" d="M266.63,35.8h-5.26V1.05h40.95v34.75h-5.38c-.82-23.75-3.63-28.55-8.66-28.55v50.54c0,10.18,0,10.76,6.9,10.76v6.2h-26.56v-6.2c7.02,0,7.02-.59,7.02-10.76V7.25h-.12c-5.38,0-8.19,4.91-8.89,28.55Z"/>
</svg>