<?xml version="1.0" encoding="UTF-8"?>
<svg id="Livello_1" data-name="Livello 1" xmlns="http://www.w3.org/2000/svg" viewBox="0 0 317.15 49.69">
  <defs>
    <style>
      .cls-1 {
        fill: #fff;
      }
    </style>
  </defs>
  <path class="cls-1" d="M42.3,31.18c0,2.6-3.2,18.52-19.12,18.52-7.39,0-23.18-4-23.18-24.85C0,5.53,13.99,0,23.18,0c3.2,0,6.53.6,10.59,2.4,1.46.6,2.6.8,3.53.8,2.06,0,3.06-1,3.26-1.2h.93v21.72h-.8c0-7.19-4.06-22.72-17.52-22.72C10.66,1,7.59,15.59,7.59,24.85c0,18.38,10.06,22.65,15.59,22.98h1.07c10.99,0,16.59-9.79,17.25-16.59l.8-.07Z"/>
  <path class="cls-1" d="M95.21,24.85c0,19.32-14.72,24.85-23.85,24.85s-23.78-5.53-23.78-24.85S62.17,0,71.37,0s23.85,5.53,23.85,24.85ZM87.55,24.85c0-9.26-3.73-23.85-16.19-23.85s-16.19,14.59-16.19,23.85,3.66,23.85,16.19,23.85,16.19-14.59,16.19-23.85Z"/>
  <path class="cls-1" d="M144.8,1.07v.93h-4.53c-4.46,0-4.8,3.73-4.87,5.66v42.03h-1L103.57,5.93h-.93v36.04c.07,2.06.4,5.73,4.86,5.73h4.53v.93h-19.78v-.93h4.53c4.46,0,4.86-3.66,4.93-5.73V7.66c-.07-1.93-.47-5.66-4.93-5.66h-4.53v-.93h16.32l24.91,35.71h.93V7.66c-.07-1.93-.4-5.66-4.86-5.66h-4.53v-.93h19.78Z"/>
  <path class="cls-1" d="M184.86,1.07v27.24h-.93c0-10.59,0-26.31-15.05-26.31h-1.07v39.97c0,2.06.4,5.73,4.86,5.73h4.46v.93h-25.38v-.93h4.46c4.46,0,4.86-3.66,4.86-5.73V2h-1.06c-15.06,0-15.06,15.72-15.06,26.31h-.93V1.07h40.83Z"/>
  <path class="cls-1" d="M236.84,47.7v.93h-27.24v-.93h4.13c5.26,0,5.53-2.33,4.4-4.79l-5.93-13.72h-17.05l-5.66,13.92c-.4,1.13-1.46,4.6,3.86,4.6h4.93v.93h-20.85v-.93h2.07c5.86,0,7.66-1.46,10.66-8.93L205.87,0h.93l16.99,38.84c3.13,7.06,5.46,8.86,10.73,8.86h2.33ZM202.93,9.93l-7.39,18.32h16.25l-7.93-18.32h-.93Z"/>
  <path class="cls-1" d="M271.84,31.18c0,2.6-3.2,18.52-19.12,18.52-7.4,0-23.18-4-23.18-24.85,0-19.32,13.99-24.85,23.18-24.85,3.19,0,6.53.6,10.59,2.4,1.46.6,2.6.8,3.53.8,2.06,0,3.06-1,3.26-1.2h.93v21.72h-.8c0-7.19-4.06-22.72-17.52-22.72-12.52,0-15.59,14.59-15.59,23.85,0,18.38,10.06,22.65,15.59,22.98h1.06c10.99,0,16.59-9.79,17.25-16.59l.8-.07Z"/>
  <path class="cls-1" d="M317.15,1.07v27.24h-.93c0-10.59,0-26.31-15.05-26.31h-1.07v39.97c0,2.06.4,5.73,4.86,5.73h4.46v.93h-25.38v-.93h4.46c4.46,0,4.86-3.66,4.86-5.73V2h-1.06c-15.06,0-15.06,15.72-15.06,26.31h-.93V1.07h40.83Z"/>
</svg>