<?xml version="1.0" encoding="UTF-8"?>
<svg id="Livello_1" data-name="Livello 1" xmlns="http://www.w3.org/2000/svg" viewBox="0 0 303.5 103.95">
  <defs>
    <style>
      .cls-1 {
        fill: #fff;
      }
    </style>
  </defs>
  <path class="cls-1" d="M16.36,16.2c0-4.81-2.09-6.26-8.02-6.26V1.44h35.29l12.51,81.17c1.28,7.38,2.89,10.11,6.9,11.39v8.5H30.64v-8.5c5.93,0,9.3-4.01,8.02-11.55l-2.24-15.88c-2.89-.16-5.77-.16-8.82-.16h-7.22c-.96,8.18-1.28,13.63-1.28,17.48,0,5.93,2.09,7.86,6.74,10.11v8.5H0v-8.5c7.22-2.73,16.36-62.72,16.36-77.8ZM35.45,58.55l-6.58-47.16h-2.08c-2.57,20.69-4.33,35.93-5.61,47.16h14.27Z"/>
  <path class="cls-1" d="M63.84,102.5v-8.5c6.9,0,6.58-.64,6.58-9.95V19.89c0-9.3.32-9.95-6.58-9.95V1.44h32.56c17.48,0,23.26,5.94,23.26,24.86s-5.78,22.46-15.72,22.94v3.85c10.58.48,16.84,3.69,16.84,22.78,0,20.69-5.94,26.63-23.42,26.63h-33.52ZM87.9,9.95v37.86h2.73c8.98,0,11.71-2.25,11.71-18.29,0-16.84-2.89-19.57-12.19-19.57h-2.25ZM87.9,56.14v37.86h1.93c9.14,0,13.63-3.85,13.63-19.57s-4.01-18.29-12.51-18.29h-3.05Z"/>
  <path class="cls-1" d="M153.68,103.95c-20.05,0-28.07-12.51-28.07-51.81.16-39.3,8.02-52.13,28.07-52.13s28.39,13.64,28.39,52.13c-.16,38.5-8.18,51.81-28.39,51.81ZM153.68,9.14c-6.58,0-9.78,6.9-9.78,42.83s3.21,42.83,9.78,42.83,9.94-6.74,9.94-42.83-3.05-42.83-9.94-42.83Z"/>
  <path class="cls-1" d="M218.32,10.11V1.44h25.5v8.66c-4.33,3.37-6.73,11.71-6.73,27.11v41.07c0,17-4.65,25.34-21.5,25.34-18.29,0-24.22-7.7-24.22-25.66V20.53c0-10.11.16-10.59-6.58-10.59V1.44h27.59v8.5c-3.53,0-3.53.48-3.53,10.59v56.63c0,8.98,3.69,13.63,10.59,13.63,7.38,0,9.95-4.01,9.95-12.99,0-55.18-3.53-62.24-11.07-67.69Z"/>
  <path class="cls-1" d="M254.57,49.09h-7.22V1.44h56.14v47.64h-7.38c-1.13-32.56-4.97-39.14-11.87-39.14v69.3c0,13.95,0,14.76,9.46,14.76v8.5h-36.41v-8.5c9.62,0,9.62-.8,9.62-14.76V9.95h-.16c-7.38,0-11.23,6.74-12.19,39.14Z"/>
</svg>