<?xml version="1.0" encoding="UTF-8"?>
<svg id="Livello_1" data-name="Livello 1" xmlns="http://www.w3.org/2000/svg" viewBox="0 0 317.15 67.44">
  <defs>
    <style>
      .cls-1 {
        fill: #fff;
      }
    </style>
  </defs>
  <path class="cls-1" d="M80.63,64.72v1.27h-36.97v-1.27h5.61c7.14,0,7.5-3.17,5.97-6.51l-8.05-18.62h-23.14l-7.68,18.89c-.54,1.54-1.99,6.24,5.24,6.24h6.69v1.27H0v-1.27h2.8c7.95,0,10.4-1.99,14.46-12.11L38.6,0h1.27l23.05,52.7c4.25,9.58,7.41,12.02,14.56,12.02h3.16ZM34.62,13.47l-10.03,24.86h22.06l-10.76-24.86h-1.27Z"/>
  <path class="cls-1" d="M107.33,31.19c13.56,1.81,18.89,9.58,18.89,17.18,0,13.47-11.93,17.54-24.32,17.63h-33.9v-1.27h6.15c5.97,0,6.51-4.97,6.6-7.77V10.49c-.09-2.71-.63-7.78-6.6-7.78h-6.15v-1.27h28.83c15.64-.09,24.23,6.15,24.23,14.74,0,7.96-6.24,12.38-13.74,14.28v.72ZM89.79,2.71v28.03h1.63c10.4,0,19.71-2.53,19.71-14.46,0-10.04-6.42-13.56-15.37-13.56h-5.97ZM100.19,32h-10.4v32.72h12.12c10.21,0,14.37-8.23,14.37-16.36,0-10.3-5.61-16.36-16.09-16.36Z"/>
  <path class="cls-1" d="M196.32,33.72c0,26.21-19.98,33.72-32.36,33.72s-32.27-7.5-32.27-33.72S151.48,0,163.96,0s32.36,7.5,32.36,33.72ZM185.92,33.72c0-12.56-5.06-32.36-21.96-32.36s-21.97,19.8-21.97,32.36,4.97,32.36,21.97,32.36,21.96-19.8,21.96-32.36Z"/>
  <path class="cls-1" d="M264.06,1.45v1.27h-6.15c-6.06,0-6.6,5.06-6.6,7.68v37.88c0,11.84-8.95,19.16-22.51,19.16-14.55,0-22.42-6.96-22.42-21.79V10.4c-.09-2.62-.54-7.68-6.69-7.68h-6.05v-1.27h34.44v1.27h-6.06c-6.05,0-6.6,5.06-6.6,7.68v36.16c0,10.94,3.17,19.62,15.01,19.62,9.76,0,19.52-6.6,19.52-17.72V10.4c0-2.62-.54-7.68-6.6-7.68h-6.06v-1.27h26.76Z"/>
  <path class="cls-1" d="M317.15,1.45v36.97h-1.27c0-14.37,0-35.71-20.43-35.71h-1.45v54.24c0,2.8.54,7.77,6.6,7.77h6.06v1.27h-34.44v-1.27h6.05c6.06,0,6.6-4.97,6.6-7.77V2.71h-1.44c-20.43,0-20.43,21.33-20.43,35.71h-1.27V1.45h55.41Z"/>
</svg>