<?xml version="1.0" encoding="UTF-8"?>
<svg id="Livello_1" data-name="Livello 1" xmlns="http://www.w3.org/2000/svg" viewBox="0 0 302.37 75.24">
  <defs>
    <style>
      .cls-1 {
        fill: #fff;
      }
    </style>
  </defs>
  <path class="cls-1" d="M20.32,75.24C5.81,75.24,0,66.19,0,37.74.12,9.29,5.81,0,20.32,0s20.55,9.87,20.55,37.74c-.11,27.87-5.92,37.51-20.55,37.51ZM20.32,6.62c-4.76,0-7.08,4.99-7.08,31s2.32,31,7.08,31c4.99,0,7.2-4.88,7.2-31s-2.21-31-7.2-31Z"/>
  <path class="cls-1" d="M43.54,74.2v-6.15c4.88,0,4.76-.46,4.76-8.01V15.21c0-7.55.12-8.01-4.76-8.01V1.05h23.8v6.15c-5.92,0-6.39.46-6.39,8.01v52.83c7.32,0,9.64-4.88,11.26-30.42h4.88v36.58h-33.56Z"/>
  <path class="cls-1" d="M84.19,14.75c0-7.08,0-7.55-4.76-7.55V1.05h22.18v6.15c-4.64,0-4.76.46-4.76,7.55v45.75c0,7.08.12,7.55,4.76,7.55v6.15h-22.18v-6.15c4.76,0,4.76-.46,4.76-7.55V14.75Z"/>
  <path class="cls-1" d="M116.58,74.2l-8.83-55.27c-1.28-7.55-2.21-10.57-5.46-11.73V1.05h22.87v6.15c-4.76.35-6.04,2.09-4.53,11.96l6.62,45.63h2.09c3.37-27.98,4.99-40.76,4.99-48.07,0-5.57-.46-8.13-4.88-9.52V1.05h18.93v6.39c-4.53,2.55-8.71,17.65-13.47,66.77h-18.35Z"/>
  <path class="cls-1" d="M148.98,74.2v-6.15c4.99,0,4.76-.46,4.76-7.2V14.4c0-6.73.23-7.2-4.76-7.2V1.05h39.36v27.17h-4.99c-1.39-18.11-4.41-21.02-16.95-21.02v26.82c4.88-.58,7.08-3.95,7.32-13.12h4.53c-.12,5.46-.12,10.91-.12,15.79s0,10.1.12,15.56h-4.53c-.23-9.52-2.21-12.89-7.32-13.12v28.91c11.84,0,16.49-3.02,17.42-24.04h5.11v30.19h-39.94Z"/>
  <path class="cls-1" d="M197.98,35.53h-5.22V1.05h40.64v34.49h-5.34c-.81-23.57-3.6-28.33-8.59-28.33v50.16c0,10.1,0,10.68,6.85,10.68v6.15h-26.36v-6.15c6.96,0,6.96-.58,6.96-10.68V7.2h-.11c-5.34,0-8.13,4.88-8.83,28.33Z"/>
  <path class="cls-1" d="M242.22,35.53h-5.23V1.05h40.64v34.49h-5.34c-.81-23.57-3.6-28.33-8.59-28.33v50.16c0,10.1,0,10.68,6.85,10.68v6.15h-26.36v-6.15c6.97,0,6.97-.58,6.97-10.68V7.2h-.12c-5.34,0-8.13,4.88-8.82,28.33Z"/>
  <path class="cls-1" d="M284.95,14.75c0-7.08,0-7.55-4.76-7.55V1.05h22.18v6.15c-4.65,0-4.76.46-4.76,7.55v45.75c0,7.08.12,7.55,4.76,7.55v6.15h-22.18v-6.15c4.76,0,4.76-.46,4.76-7.55V14.75Z"/>
</svg>