<?xml version="1.0" encoding="UTF-8"?>
<svg id="Livello_1" data-name="Livello 1" xmlns="http://www.w3.org/2000/svg" viewBox="0 0 317.15 50.84">
  <defs>
    <style>
      .cls-1 {
        fill: #fff;
      }
    </style>
  </defs>
  <path class="cls-1" d="M48.72,25.42c0,19.76-15.06,25.42-24.39,25.42S0,45.18,0,25.42,14.92,0,24.33,0s24.39,5.66,24.39,25.42ZM40.88,25.42c0-9.47-3.81-24.39-16.56-24.39S7.77,15.95,7.77,25.42s3.75,24.4,16.56,24.4,16.56-14.93,16.56-24.4Z"/>
  <path class="cls-1" d="M87.79,20.51v29.23h-41.77v-.95h4.63c4.57,0,4.91-3.75,4.97-5.86V7.91c-.07-2.11-.41-5.86-4.97-5.86h-4.63v-.95h26.03v.95h-4.64c-4.56,0-4.97,3.75-4.97,5.86v40.88h9c15.4,0,15.4-15.88,15.4-28.28h.95Z"/>
  <path class="cls-1" d="M109.55,48.79h4.64v.95h-26.03v-.95h4.63c4.57,0,4.91-3.75,4.97-5.86V7.91c-.07-2.11-.41-5.86-4.97-5.86h-4.63v-.95h26.03v.95h-4.64c-4.56,0-4.9,3.75-4.97,5.86v35.02c.07,2.11.41,5.86,4.97,5.86Z"/>
  <path class="cls-1" d="M165.44,1.09v.95h-2.04c-6.06,0-7.9,1.5-11.04,9.13l-16.08,39.66h-.88l-17.44-39.73c-3.13-7.22-5.59-9.06-10.9-9.06h-2.38v-.95h27.94v.95h-4.29c-5.38,0-5.66,2.39-4.5,4.91l14.58,33.73h.95c.48-1.23,13.83-34,13.83-34,.41-1.16,1.36-4.63-4.09-4.63h-4.97v-.95h21.33Z"/>
  <path class="cls-1" d="M198.85,25.22v24.53h-42.93v-.95h4.63c4.57,0,4.9-3.75,4.97-5.86V7.91c-.07-2.11-.41-5.86-4.97-5.86h-4.63v-.95h42.11v21.19h-.95c0-4.23-.48-20.24-15.4-20.24h-9.34v21.67h1.5c10.77,0,10.77-6.88,10.77-13.97v-2.45h.95v33.8h-.95v-2.46c0-7.09,0-13.97-10.77-13.97h-1.5v24.12h7.5c18.13,0,18.06-13.42,18.06-23.58h.95Z"/>
  <path class="cls-1" d="M244.94,1.09v27.87h-.95c0-10.83,0-26.92-15.4-26.92h-1.09v40.89c0,2.11.41,5.86,4.97,5.86h4.57v.95h-25.96v-.95h4.56c4.57,0,4.97-3.75,4.97-5.86V2.04h-1.09c-15.4,0-15.4,16.08-15.4,26.92h-.95V1.09h41.77Z"/>
  <path class="cls-1" d="M291.92,1.09v27.87h-.95c0-10.83,0-26.92-15.4-26.92h-1.09v40.89c0,2.11.41,5.86,4.97,5.86h4.57v.95h-25.96v-.95h4.56c4.57,0,4.97-3.75,4.97-5.86V2.04h-1.09c-15.4,0-15.4,16.08-15.4,26.92h-.95V1.09h41.77Z"/>
  <path class="cls-1" d="M312.52,48.79h4.64v.95h-26.03v-.95h4.63c4.57,0,4.91-3.75,4.97-5.86V7.91c-.07-2.11-.41-5.86-4.97-5.86h-4.63v-.95h26.03v.95h-4.64c-4.56,0-4.9,3.75-4.97,5.86v35.02c.07,2.11.41,5.86,4.97,5.86Z"/>
</svg>