<?xml version="1.0" encoding="UTF-8"?>
<svg id="Livello_1" data-name="Livello 1" xmlns="http://www.w3.org/2000/svg" viewBox="0 0 303.2 38.47">
  <defs>
    <style>
      .cls-1 {
        fill: #fff;
      }
    </style>
  </defs>
  <path class="cls-1" d="M0,38v-3.16c2.56,0,2.44-.24,2.44-3.69V7.33c0-3.45.12-3.69-2.44-3.69V.48h12.09c6.49,0,8.64,2.2,8.64,9.23s-2.14,8.34-5.84,8.52v1.43c3.93.18,6.25,1.37,6.25,8.46,0,7.68-2.2,9.89-8.7,9.89H0ZM8.93,3.63v14.05h1.01c3.33,0,4.35-.83,4.35-6.79,0-6.25-1.07-7.27-4.53-7.27h-.83ZM8.93,20.78v14.06h.71c3.39,0,5.06-1.43,5.06-7.27s-1.49-6.79-4.65-6.79h-1.13Z"/>
  <path class="cls-1" d="M35.73,33.29c0-2.38-.06-4.35-.06-7.27-.06-4.17-.71-5.24-3.87-5.18h-.77v10.3c0,3.45-.06,3.69,2.68,3.69v3.16h-11.61v-3.16c2.5,0,2.44-.3,2.44-4.65V8.63c0-4.7.06-5-2.44-5V.48h13.22c5.96,0,8.04,2.2,8.04,9.23,0,7.56-2.56,8.58-6.85,8.7v1.25c3.93.12,5.24,2.08,5.24,7.03v5.18c0,1.67.06,2.38.71,2.38s.77-.95.77-4.82c0-1.13,0-2.38-.06-3.81h1.97c.06,1.49.06,2.74.06,3.93,0,6.79-.95,8.81-4.47,8.81s-4.88-1.31-5-5.06ZM31.03,3.63v14.11h1.67c2.8,0,4.23-1.79,4.23-7.5s-.71-6.61-4.76-6.61h-1.13Z"/>
  <path class="cls-1" d="M57.47,3.69V.48h9.47v3.22c-1.61,1.25-2.5,4.35-2.5,10.06v15.25c0,6.31-1.73,9.41-7.98,9.41-6.79,0-8.99-2.86-8.99-9.53V7.56c0-3.75.06-3.93-2.44-3.93V.48h10.24v3.16c-1.31,0-1.31.18-1.31,3.93v21.02c0,3.33,1.37,5.06,3.93,5.06,2.74,0,3.69-1.49,3.69-4.82,0-20.49-1.31-23.11-4.11-25.13Z"/>
  <path class="cls-1" d="M70.93,18.16h-2.68V.48h20.84v17.69h-2.74c-.42-12.09-1.85-14.53-4.41-14.53v25.73c0,5.18,0,5.48,3.51,5.48v3.16h-13.52v-3.16c3.57,0,3.57-.3,3.57-5.48V3.63h-.06c-2.74,0-4.17,2.5-4.53,14.53Z"/>
  <path class="cls-1" d="M94.87,5.96c0-1.79-.77-2.32-2.98-2.32V.48h13.1l4.65,30.13c.48,2.74,1.07,3.75,2.56,4.23v3.16h-12.03v-3.16c2.2,0,3.46-1.49,2.98-4.29l-.83-5.9c-1.07-.06-2.14-.06-3.28-.06h-2.68c-.36,3.04-.48,5.06-.48,6.49,0,2.2.77,2.92,2.5,3.75v3.16h-9.59v-3.16c2.68-1.01,6.08-23.29,6.08-28.88ZM101.96,21.68l-2.44-17.51h-.77c-.95,7.68-1.61,13.34-2.08,17.51h5.3Z"/>
  <path class="cls-1" d="M112.5,38v-3.16c2.5,0,2.44-.24,2.44-4.11V7.74c0-3.87.06-4.11-2.44-4.11V.48h12.21v3.16c-3.04,0-3.28.24-3.28,4.11v27.1c3.75,0,4.94-2.5,5.78-15.6h2.5v18.76h-17.21Z"/>
  <path class="cls-1" d="M133.35,7.5c0-3.63,0-3.87-2.44-3.87V.48h11.38v3.16c-2.38,0-2.44.24-2.44,3.87v23.46c0,3.63.06,3.87,2.44,3.87v3.16h-11.38v-3.16c2.44,0,2.44-.24,2.44-3.87V7.5Z"/>
  <path class="cls-1" d="M151.45,21.68c-4.82-3.81-7.44-7.21-7.44-12.75s2.8-8.93,7.44-8.93c3.57,0,4.65,2.62,6.01,2.62.78,0,1.07-.54,1.25-2.14h2.86v14.29h-2.62c-1.79-8.34-3.63-11.32-6.37-11.32-1.91,0-2.98,1.55-2.98,4.05,0,2.98,1.49,5.54,4.77,8.28,4.94,3.81,8.1,7.68,8.1,13.76s-3.22,8.93-7.09,8.93c-4.35,0-6.49-3.28-7.74-3.28-.71,0-.95.71-1.01,2.8h-2.68v-15.66h2.56c1.79,8.1,4.17,12.63,7.32,12.63,1.67,0,2.92-.89,2.92-3.93,0-3.93-1.97-6.49-5.3-9.35Z"/>
  <path class="cls-1" d="M166.64,18.16h-2.68V.48h20.84v17.69h-2.74c-.42-12.09-1.85-14.53-4.41-14.53v25.73c0,5.18,0,5.48,3.51,5.48v3.16h-13.52v-3.16c3.57,0,3.57-.3,3.57-5.48V3.63h-.06c-2.74,0-4.17,2.5-4.53,14.53Z"/>
  <path class="cls-1" d="M207.43,38h-12.75v-3.16c2.44,0,2.44-.24,2.44-3.69V7.74c0-3.87-.06-4.11-2.44-4.11V.48h11.08c7.62,0,10.36,3.81,10.36,12.68.06,8.99-2.56,12.92-9.71,12.92-1.07,0-2.02,0-2.74-.06v5.12c0,3.45.12,3.69,3.75,3.69v3.16ZM203.68,3.63v18.88h1.91c2.08,0,4.17-1.13,4.17-8.22,0-9.05-1.01-10.66-4.41-10.66h-1.67Z"/>
  <path class="cls-1" d="M221.13,5.96c0-1.79-.77-2.32-2.98-2.32V.48h13.1l4.64,30.13c.48,2.74,1.07,3.75,2.56,4.23v3.16h-12.03v-3.16c2.2,0,3.45-1.49,2.98-4.29l-.83-5.9c-1.07-.06-2.14-.06-3.28-.06h-2.68c-.36,3.04-.48,5.06-.48,6.49,0,2.2.78,2.92,2.5,3.75v3.16h-9.59v-3.16c2.68-1.01,6.07-23.29,6.07-28.88ZM228.22,21.68l-2.44-17.51h-.77c-.95,7.68-1.61,13.34-2.08,17.51h5.3Z"/>
  <path class="cls-1" d="M246.74,21.68c-4.82-3.81-7.45-7.21-7.45-12.75s2.8-8.93,7.45-8.93c3.57,0,4.64,2.62,6.01,2.62.77,0,1.07-.54,1.25-2.14h2.86v14.29h-2.62c-1.79-8.34-3.63-11.32-6.37-11.32-1.91,0-2.98,1.55-2.98,4.05,0,2.98,1.49,5.54,4.76,8.28,4.94,3.81,8.1,7.68,8.1,13.76s-3.22,8.93-7.09,8.93c-4.35,0-6.49-3.28-7.74-3.28-.71,0-.95.71-1.01,2.8h-2.68v-15.66h2.56c1.79,8.1,4.17,12.63,7.33,12.63,1.67,0,2.92-.89,2.92-3.93,0-3.93-1.97-6.49-5.3-9.35Z"/>
  <path class="cls-1" d="M261.93,18.16h-2.68V.48h20.84v17.69h-2.74c-.42-12.09-1.85-14.53-4.41-14.53v25.73c0,5.18,0,5.48,3.51,5.48v3.16h-13.52v-3.16c3.57,0,3.57-.3,3.57-5.48V3.63h-.06c-2.74,0-4.17,2.5-4.53,14.53Z"/>
  <path class="cls-1" d="M285.87,5.96c0-1.79-.77-2.32-2.98-2.32V.48h13.1l4.64,30.13c.48,2.74,1.07,3.75,2.56,4.23v3.16h-12.03v-3.16c2.2,0,3.45-1.49,2.98-4.29l-.83-5.9c-1.07-.06-2.14-.06-3.28-.06h-2.68c-.36,3.04-.48,5.06-.48,6.49,0,2.2.78,2.92,2.5,3.75v3.16h-9.59v-3.16c2.68-1.01,6.07-23.29,6.07-28.88ZM292.96,21.68l-2.44-17.51h-.77c-.95,7.68-1.61,13.34-2.08,17.51h5.3Z"/>
</svg>