<?xml version="1.0" encoding="UTF-8"?>
<svg id="Livello_1" data-name="Livello 1" xmlns="http://www.w3.org/2000/svg" viewBox="0 0 317.15 123.46">
  <defs>
    <style>
      .cls-1 {
        fill: #fff;
      }
    </style>
  </defs>
  <path class="cls-1" d="M25.33,20.09c8.74,1.17,12.17,6.17,12.17,11.06,0,8.68-7.69,11.3-15.66,11.36H0v-.82h3.96c3.84,0,4.19-3.2,4.25-5.01V6.76c-.06-1.75-.41-5.01-4.25-5.01H0v-.82h18.57c10.08-.06,15.61,3.96,15.61,9.49,0,5.13-4.02,7.98-8.85,9.2v.46ZM14.03,1.75v18.05h1.05c6.7,0,12.7-1.63,12.7-9.32,0-6.46-4.13-8.74-9.9-8.74h-3.84ZM20.73,20.62h-6.7v21.08h7.8c6.58,0,9.26-5.3,9.26-10.54,0-6.64-3.61-10.54-10.36-10.54Z"/>
  <path class="cls-1" d="M70.88,32.44c6.06,9.32,7.22,9.26,12.87,9.26v.82h-23.58v-.82h4.48c4.43,0,3.55-2.39,2.39-4.25l-9.61-15.2h-7.05v14.44c.06,1.8.35,5.01,4.25,5.01h3.96v.82h-22.24v-.82h3.96c3.9,0,4.19-3.2,4.25-5.01V6.76c-.06-1.81-.35-5.01-4.25-5.01h-3.96v-.82h19.97c10.25,0,15.02,4.78,15.08,10.31,0,2.97-1.86,7.22-8.15,9.49l7.63,11.7ZM50.39,21.49h1.92c7.98,0,12.69-2.5,12.69-10.25,0-6.41-4.13-9.49-9.9-9.49h-4.72v19.74Z"/>
  <path class="cls-1" d="M118.66.93v.82h-3.96c-3.9,0-4.25,3.26-4.25,4.95v24.4c0,7.63-5.76,12.34-14.5,12.34-9.37,0-14.44-4.48-14.44-14.03V6.7c-.06-1.69-.35-4.95-4.31-4.95h-3.9v-.82h22.18v.82h-3.9c-3.9,0-4.25,3.26-4.25,4.95v23.29c0,7.05,2.04,12.64,9.67,12.64,6.29,0,12.58-4.25,12.58-11.41V6.7c0-1.69-.35-4.95-4.25-4.95h-3.9v-.82h17.24Z"/>
  <path class="cls-1" d="M152.86.93v23.82h-.82c0-9.26,0-23-13.16-23h-.93v34.94c0,1.8.35,5.01,4.25,5.01h3.9v.82h-22.18v-.82h3.9c3.9,0,4.25-3.2,4.25-5.01V1.75h-.93c-13.16,0-13.16,13.74-13.16,23h-.82V.93h35.7Z"/>
  <path class="cls-1" d="M198.3,41.69v.82h-23.82v-.82h3.61c4.6,0,4.83-2.04,3.84-4.19l-5.18-12h-14.91l-4.95,12.17c-.35.99-1.28,4.02,3.38,4.02h4.31v.82h-18.23v-.82h1.81c5.12,0,6.7-1.28,9.32-7.8L171.22,0h.82l14.85,33.95c2.74,6.17,4.77,7.75,9.38,7.75h2.04ZM168.66,8.68l-6.46,16.01h14.21l-6.93-16.01h-.82Z"/>
  <path class="cls-1" d="M225.86,17.53v24.98h-35.7v-.82h3.96c3.9,0,4.19-3.2,4.25-5.01V6.76c-.06-1.81-.35-5.01-4.25-5.01h-3.96v-.82h22.24v.82h-3.96c-3.9,0-4.25,3.2-4.25,5.01v34.94h7.69c13.16,0,13.16-13.57,13.16-24.16h.82Z"/>
  <path class="cls-1" d="M244.45,41.69h3.96v.82h-22.24v-.82h3.96c3.9,0,4.19-3.2,4.25-5.01V6.76c-.06-1.81-.35-5.01-4.25-5.01h-3.96v-.82h22.24v.82h-3.96c-3.9,0-4.19,3.2-4.25,5.01v29.93c.06,1.8.35,5.01,4.25,5.01Z"/>
  <path class="cls-1" d="M262.98,43.44c-6.52,0-9.55-1.75-11.65-1.75-.76,0-1.34.23-1.98.82h-.82v-21.31h.82c0,11.12,4.37,21.37,13.63,21.37,6.41.06,10.89-3.15,10.89-9.03,0-10.48-16.77-7.8-22.83-15.31-4.25-5.12-2.56-11.47,1.69-15.08,2.68-2.21,5.82-3.15,9.49-3.15,6.35,0,9.26,1.69,11.24,1.69.7,0,1.22-.18,1.81-.76h.87v15.84h-.87c0-6.17-4.78-15.9-13.04-15.9-3.44,0-6.87.93-8.91,3.73-2.1,2.8-1.34,7.16,1.57,9.32,7.45,5.65,23.93,3.73,23.93,16.3,0,8.04-7.4,13.22-15.84,13.22Z"/>
  <path class="cls-1" d="M317.15.93v23.82h-.82c0-9.26,0-23-13.16-23h-.93v34.94c0,1.8.35,5.01,4.25,5.01h3.9v.82h-22.18v-.82h3.9c3.9,0,4.25-3.2,4.25-5.01V1.75h-.93c-13.16,0-13.16,13.74-13.16,23h-.81V.93h35.69Z"/>
  <g>
    <path class="cls-1" d="M0,53.78v-1.36h33.86c18.29,0,25.11,12.55,25.11,21.31,0,15.28-12.65,21.4-30.75,21.4h-4.77v17.03c0,3.01.59,8.37,7.1,8.37h6.62v1.36H0v-1.36h6.62c6.52,0,7.01-5.35,7.1-8.37v-50.02c-.1-3.02-.58-8.37-7.1-8.37H0ZM23.45,53.78v39.99h3.7c11.09,0,21.21-3.8,21.21-20.04,0-10.7-5.45-19.95-16.64-19.95h-8.27Z"/>
    <path class="cls-1" d="M130.23,120.54v1.36h-39.8v-1.36h6.03c7.69,0,8.08-3.41,6.42-7l-8.66-20.05h-24.91l-8.27,20.33c-.58,1.66-2.14,6.71,5.65,6.71h7.2v1.36h-30.46v-1.36h3.01c8.56,0,11.19-2.14,15.57-13.04l22.97-56.64h1.36l24.81,56.73c4.57,10.32,7.98,12.94,15.67,12.94h3.4ZM80.7,65.36l-10.8,26.76h23.75l-11.58-26.76h-1.36Z"/>
    <path class="cls-1" d="M150.7,123.46c-10.9,0-15.96-2.92-19.46-2.92-1.26,0-2.24.39-3.31,1.36h-1.36v-35.61h1.36c0,18.59,7.3,35.71,22.77,35.71,10.7.1,18.2-5.26,18.2-15.09,0-17.51-28.02-13.04-38.14-25.59-7.11-8.56-4.28-19.17,2.82-25.2,4.48-3.7,9.73-5.26,15.86-5.26,10.61,0,15.47,2.82,18.78,2.82,1.17,0,2.04-.29,3.02-1.27h1.46v26.47h-1.46c0-10.31-7.98-26.56-21.8-26.56-5.74,0-11.48,1.56-14.89,6.23-3.51,4.67-2.24,11.97,2.63,15.57,12.46,9.44,39.99,6.23,39.99,27.24,0,13.43-12.36,22.09-26.47,22.09Z"/>
    <path class="cls-1" d="M241.22,52.42v39.8h-1.36c0-15.47,0-38.44-21.99-38.44h-1.56v58.39c0,3.01.59,8.37,7.1,8.37h6.52v1.36h-37.07v-1.36h6.52c6.52,0,7.1-5.35,7.1-8.37v-58.39h-1.55c-21.99,0-21.99,22.97-21.99,38.44h-1.36v-39.8h59.65Z"/>
    <path class="cls-1" d="M317.15,120.54v1.36h-39.8v-1.36h6.03c7.69,0,8.08-3.41,6.42-7l-8.66-20.05h-24.91l-8.27,20.33c-.58,1.66-2.14,6.71,5.65,6.71h7.2v1.36h-30.46v-1.36h3.02c8.56,0,11.19-2.14,15.57-13.04l22.97-56.64h1.36l24.81,56.73c4.57,10.32,7.98,12.94,15.67,12.94h3.4ZM267.63,65.36l-10.8,26.76h23.74l-11.58-26.76h-1.36Z"/>
  </g>
</svg>