<?xml version="1.0" encoding="UTF-8"?>
<svg id="Livello_1" data-name="Livello 1" xmlns="http://www.w3.org/2000/svg" viewBox="0 0 317.15 49.39">
  <defs>
    <style>
      .cls-1 {
        fill: #fff;
      }
    </style>
  </defs>
  <path class="cls-1" d="M16.42,49.39c-7.42,0-10.86-1.99-13.24-1.99-.86,0-1.52.26-2.25.93h-.93v-24.23h.93c0,12.65,4.97,24.3,15.49,24.3,7.28.06,12.38-3.58,12.38-10.26,0-11.92-19.07-8.87-25.95-17.41C-1.98,14.9-.06,7.68,4.77,3.58,7.81,1.06,11.39,0,15.56,0c7.22,0,10.53,1.92,12.78,1.92.8,0,1.39-.2,2.05-.86h.99v18.01h-.99C30.39,12.05,24.96.99,15.56.99c-3.91,0-7.81,1.06-10.13,4.24-2.38,3.18-1.52,8.14,1.79,10.59,8.47,6.42,27.21,4.24,27.21,18.54,0,9.14-8.41,15.03-18.01,15.03Z"/>
  <path class="cls-1" d="M78.01,1.06v27.08h-.93c0-10.53,0-26.15-14.96-26.15h-1.06v39.73c0,2.05.4,5.69,4.83,5.69h4.44v.93h-25.22v-.93h4.43c4.44,0,4.84-3.64,4.84-5.69V1.99h-1.06c-14.96,0-14.96,15.63-14.96,26.15h-.92V1.06h40.58Z"/>
  <path class="cls-1" d="M98.03,47.41h4.5v.93h-25.29v-.93h4.5c4.44,0,4.77-3.64,4.83-5.69V7.68c-.07-2.05-.4-5.7-4.83-5.7h-4.5v-.93h25.29v.93h-4.5c-4.43,0-4.77,3.64-4.83,5.7v34.03c.07,2.05.4,5.69,4.83,5.69Z"/>
  <path class="cls-1" d="M140.48,19.93v28.4h-40.59v-.93h4.5c4.44,0,4.77-3.64,4.83-5.69V7.68c-.06-2.05-.4-5.7-4.83-5.7h-4.5v-.93h25.29v.93h-4.5c-4.43,0-4.83,3.64-4.83,5.7v39.72h8.74c14.96,0,14.96-15.43,14.96-27.48h.93Z"/>
  <path class="cls-1" d="M181.42,19.93v28.4h-40.59v-.93h4.5c4.44,0,4.77-3.64,4.83-5.69V7.68c-.06-2.05-.4-5.7-4.83-5.7h-4.5v-.93h25.29v.93h-4.5c-4.43,0-4.83,3.64-4.83,5.7v39.72h8.74c14.96,0,14.96-15.43,14.96-27.48h.93Z"/>
  <path class="cls-1" d="M252.44,19.93v28.4h-40.59v-.93h4.5c4.44,0,4.77-3.64,4.83-5.69V7.68c-.07-2.05-.4-5.7-4.83-5.7h-4.5v-.93h25.29v.93h-4.5c-4.43,0-4.83,3.64-4.83,5.7v39.72h8.74c14.96,0,14.96-15.43,14.96-27.48h.93Z"/>
  <path class="cls-1" d="M273.58,47.41h4.5v.93h-25.29v-.93h4.5c4.44,0,4.77-3.64,4.83-5.69V7.68c-.07-2.05-.4-5.7-4.83-5.7h-4.5v-.93h25.29v.93h-4.5c-4.43,0-4.77,3.64-4.83,5.7v34.03c.07,2.05.4,5.69,4.83,5.69Z"/>
  <path class="cls-1" d="M317.15,24.5v23.83h-41.71v-.93h4.5c4.44,0,4.77-3.64,4.83-5.69V7.68c-.06-2.05-.4-5.7-4.83-5.7h-4.5v-.93h40.91v20.59h-.93c0-4.11-.46-19.66-14.96-19.66h-9.07v21.05h1.46c10.46,0,10.46-6.69,10.46-13.57v-2.38h.92v32.84h-.92v-2.39c0-6.88,0-13.57-10.46-13.57h-1.46v23.44h7.28c17.61,0,17.54-13.04,17.54-22.91h.93Z"/>
</svg>