<?xml version="1.0" encoding="UTF-8"?>
<svg id="Livello_1" data-name="Livello 1" xmlns="http://www.w3.org/2000/svg" viewBox="0 0 302.19 77.16">
  <defs>
    <style>
      .cls-1 {
        fill: #fff;
      }
    </style>
  </defs>
  <path class="cls-1" d="M15.05,43.48C5.38,35.83.12,29.02.12,17.91S5.73,0,15.05,0c7.17,0,9.32,5.25,12.06,5.25,1.56,0,2.15-1.08,2.51-4.3h5.73v28.67h-5.25c-3.58-16.72-7.29-22.69-12.78-22.69-3.82,0-5.97,3.1-5.97,8.12,0,5.97,2.99,11.11,9.56,16.6,9.91,7.64,16.24,15.41,16.24,27.59s-6.45,17.92-14.22,17.92c-8.72,0-13.02-6.57-15.53-6.57-1.43,0-1.91,1.43-2.03,5.62H0v-31.41h5.14c3.58,16.24,8.36,25.32,14.69,25.32,3.35,0,5.85-1.79,5.85-7.88,0-7.88-3.94-13.02-10.63-18.75Z"/>
  <path class="cls-1" d="M45.51,36.43h-5.38V.96h41.81v35.47h-5.5c-.84-24.25-3.7-29.14-8.84-29.14v51.6c0,10.39,0,10.99,7.05,10.99v6.33h-27.11v-6.33c7.17,0,7.17-.6,7.17-10.99V7.29h-.12c-5.5,0-8.36,5.02-9.08,29.14Z"/>
  <path class="cls-1" d="M89.46,15.05c0-7.29,0-7.76-4.9-7.76V.96h22.81v6.33c-4.78,0-4.9.48-4.9,7.76v47.06c0,7.29.12,7.76,4.9,7.76v6.33h-22.81v-6.33c4.9,0,4.9-.48,4.9-7.76V15.05Z"/>
  <path class="cls-1" d="M108.69,76.2v-6.33c5.02,0,4.9-.48,4.9-8.24V15.53c0-7.76.12-8.24-4.9-8.24V.96h24.48v6.33c-6.09,0-6.57.48-6.57,8.24v54.35c7.52,0,9.91-5.02,11.58-31.29h5.02v37.62h-34.52Z"/>
  <path class="cls-1" d="M145.6,76.2v-6.33c5.02,0,4.9-.48,4.9-8.24V15.53c0-7.76.12-8.24-4.9-8.24V.96h24.49v6.33c-6.09,0-6.57.48-6.57,8.24v54.35c7.52,0,9.91-5.02,11.59-31.29h5.02v37.62h-34.52Z"/>
  <path class="cls-1" d="M200.07,76.2v-6.33c5.02,0,4.9-.48,4.9-8.24V15.53c0-7.76.12-8.24-4.9-8.24V.96h24.49v6.33c-6.09,0-6.57.48-6.57,8.24v54.35c7.52,0,9.91-5.02,11.58-31.29h5.02v37.62h-34.52Z"/>
  <path class="cls-1" d="M241.87,15.05c0-7.29,0-7.76-4.9-7.76V.96h22.81v6.33c-4.78,0-4.9.48-4.9,7.76v47.06c0,7.29.12,7.76,4.9,7.76v6.33h-22.81v-6.33c4.9,0,4.9-.48,4.9-7.76V15.05Z"/>
  <path class="cls-1" d="M261.1,76.2v-6.33c5.14,0,4.9-.48,4.9-7.41V14.69c0-6.93.24-7.41-4.9-7.41V.96h40.49v27.95h-5.14c-1.43-18.63-4.54-21.62-17.44-21.62v27.59c5.02-.6,7.29-4.06,7.52-13.5h4.66c-.12,5.61-.12,11.23-.12,16.24s0,10.39.12,16.01h-4.66c-.24-9.79-2.27-13.26-7.52-13.5v29.74c12.18,0,16.96-3.11,17.91-24.72h5.26v31.05h-41.09Z"/>
</svg>