<?xml version="1.0" encoding="UTF-8"?>
<svg id="Livello_1" data-name="Livello 1" xmlns="http://www.w3.org/2000/svg" viewBox="0 0 317.15 49.9">
  <defs>
    <style>
      .cls-1 {
        fill: #fff;
      }
    </style>
  </defs>
  <path class="cls-1" d="M59.67,1.07v.94h-2.01c-5.95,0-7.76,1.47-10.84,8.97l-15.78,38.93h-.87L13.04,10.9C9.97,3.81,7.56,2.01,2.34,2.01H0v-.94h27.43v.94h-4.21c-5.29,0-5.55,2.34-4.41,4.82l14.31,33.11h.94c.47-1.2,13.58-33.38,13.58-33.38.4-1.14,1.34-4.55-4.01-4.55h-4.88v-.94h20.94Z"/>
  <path class="cls-1" d="M92.47,24.75v24.08h-42.14v-.94h4.55c4.48,0,4.81-3.68,4.88-5.75V7.76c-.07-2.08-.4-5.75-4.88-5.75h-4.55v-.94h41.34v20.8h-.93c0-4.15-.47-19.87-15.12-19.87h-9.16v21.27h1.47c10.57,0,10.57-6.76,10.57-13.71v-2.41h.93v33.18h-.93v-2.41c0-6.96,0-13.71-10.57-13.71h-1.47v23.68h7.36c17.79,0,17.73-13.18,17.73-23.15h.94Z"/>
  <path class="cls-1" d="M134.97,24.75v24.08h-42.14v-.94h4.55c4.48,0,4.81-3.68,4.88-5.75V7.76c-.07-2.08-.4-5.75-4.88-5.75h-4.55v-.94h41.34v20.8h-.93c0-4.15-.47-19.87-15.12-19.87h-9.16v21.27h1.47c10.57,0,10.57-6.76,10.57-13.71v-2.41h.93v33.18h-.93v-2.41c0-6.96,0-13.71-10.57-13.71h-1.47v23.68h7.36c17.79,0,17.73-13.18,17.73-23.15h.94Z"/>
  <path class="cls-1" d="M156.74,49.9c-7.49,0-10.97-2.01-13.38-2.01-.87,0-1.54.27-2.27.94h-.94v-24.48h.94c0,12.78,5.02,24.55,15.65,24.55,7.36.07,12.51-3.61,12.51-10.37,0-12.04-19.27-8.96-26.22-17.59-4.88-5.89-2.94-13.18,1.94-17.32,3.08-2.54,6.69-3.61,10.9-3.61,7.29,0,10.63,1.94,12.91,1.94.8,0,1.41-.2,2.08-.87h1v18.19h-1c0-7.09-5.49-18.26-14.98-18.26-3.95,0-7.9,1.07-10.24,4.28-2.41,3.21-1.54,8.23,1.81,10.7,8.56,6.49,27.49,4.28,27.49,18.73,0,9.23-8.5,15.19-18.19,15.19Z"/>
  <path class="cls-1" d="M199.3,37.46L209.74,0h1l14.72,37.46h.87l8.7-30.97c.67-2.88-.13-4.48-4.08-4.48h-5.02v-.94h21.87v.94h-1.74c-6.62-.07-9.3,2.54-11.04,8.36l-11.04,39.53h-1l-14.78-37.26h-.87l-10.43,37.26h-1l-14.85-39.33c-2.61-6.42-5.48-8.56-10.63-8.56h-2.67v-.94h28.16v.94h-5.02c-4.15,0-5.08,1.87-4.01,4.82l11.51,30.64h.94Z"/>
  <path class="cls-1" d="M285.49,47.9v.94h-27.36v-.94h4.15c5.29,0,5.55-2.34,4.41-4.81l-5.95-13.78h-17.12l-5.69,13.98c-.4,1.14-1.47,4.62,3.88,4.62h4.95v.94h-20.94v-.94h2.08c5.89,0,7.69-1.47,10.7-8.96L254.38,0h.94l17.06,39c3.14,7.09,5.48,8.9,10.77,8.9h2.34ZM251.44,9.97l-7.42,18.4h16.32l-7.96-18.4h-.94Z"/>
  <path class="cls-1" d="M317.15,20.14v28.7h-41.01v-.94h4.55c4.48,0,4.82-3.68,4.88-5.75V7.76c-.07-2.08-.4-5.75-4.88-5.75h-4.55v-.94h25.55v.94h-4.55c-4.48,0-4.88,3.68-4.88,5.75v40.13h8.83c15.12,0,15.12-15.59,15.12-27.76h.94Z"/>
</svg>