<?xml version="1.0" encoding="UTF-8"?>
<svg id="Livello_1" data-name="Livello 1" xmlns="http://www.w3.org/2000/svg" viewBox="0 0 303.5 71.35">
  <defs>
    <style>
      .cls-1 {
        fill: #fff;
      }
    </style>
  </defs>
  <path class="cls-1" d="M13.58,70.46L5.19,17.89C3.98,10.71,3.09,7.84,0,6.74V.88h21.76v5.85c-4.53.33-5.74,1.99-4.31,11.38l6.3,43.4h1.99c3.2-26.62,4.75-38.77,4.75-45.72,0-5.3-.44-7.73-4.64-9.06V.88h18v6.07c-4.31,2.43-8.28,16.79-12.81,63.5H13.58Z"/>
  <path class="cls-1" d="M44.4,70.46v-5.85c4.75,0,4.53-.44,4.53-6.85V13.58c0-6.41.22-6.85-4.53-6.85V.88h37.44v25.84h-4.75c-1.33-17.23-4.2-19.99-16.13-19.99v25.51c4.64-.55,6.74-3.76,6.96-12.48h4.31c-.11,5.19-.11,10.38-.11,15.02s0,9.61.11,14.8h-4.31c-.22-9.06-2.1-12.26-6.96-12.48v27.5c11.27,0,15.68-2.87,16.57-22.86h4.86v28.72h-37.99Z"/>
  <path class="cls-1" d="M85.92,70.46v-5.85c4.75,0,4.53-.44,4.53-6.85V13.58c0-6.41.22-6.85-4.53-6.85V.88h37.44v25.84h-4.75c-1.33-17.23-4.2-19.99-16.13-19.99v25.51c4.64-.55,6.74-3.76,6.96-12.48h4.31c-.11,5.19-.11,10.38-.11,15.02s0,9.61.11,14.8h-4.31c-.22-9.06-2.1-12.26-6.96-12.48v27.5c11.27,0,15.68-2.87,16.57-22.86h4.86v28.72h-37.99Z"/>
  <path class="cls-1" d="M143.24,40.2c-8.95-7.07-13.81-13.37-13.81-23.64S134.63,0,143.24,0c6.63,0,8.61,4.86,11.16,4.86,1.43,0,1.99-.99,2.32-3.98h5.3v26.51h-4.86c-3.31-15.46-6.74-20.98-11.82-20.98-3.53,0-5.52,2.87-5.52,7.51,0,5.52,2.76,10.27,8.83,15.35,9.17,7.07,15.02,14.25,15.02,25.51s-5.96,16.57-13.14,16.57c-8.06,0-12.04-6.07-14.36-6.07-1.32,0-1.77,1.33-1.88,5.19h-4.97v-29.05h4.75c3.31,15.02,7.73,23.41,13.59,23.41,3.09,0,5.41-1.66,5.41-7.29,0-7.29-3.64-12.04-9.83-17.34Z"/>
  <path class="cls-1" d="M194.27,70.46h-16.34l-7.84-57.43c-.78-4.2-1.66-5.63-4.53-6.3V.88h44.95v5.85c-4.42,0-4.97,1.22-3.98,7.29l5.85,49.59h1.33c5.19-49.15,4.75-53.67,1.33-56.66V.88h15.24v6.07c-3.76,2.1-5.3,9.5-9.83,46.72-.77,4.97-1.1,10.49-1.66,16.79h-16.9l-4.31-30.26c-.55,3.98-1.1,8.5-1.66,13.47-.66,4.97-1.1,10.49-1.66,16.79ZM188.63,63.61h1.55c3.54-27.28,4.31-36,4.31-43.29,0-8.72-1.55-13.25-6.41-15.02-4.64.99-6.52,2.98-5.63,7.95l6.18,50.36Z"/>
  <path class="cls-1" d="M238.89,11.05c0-3.31-1.43-4.31-5.52-4.31V.88h24.3l8.61,55.88c.88,5.08,1.99,6.96,4.75,7.84v5.85h-22.31v-5.85c4.09,0,6.41-2.76,5.52-7.95l-1.54-10.93c-1.99-.11-3.98-.11-6.07-.11h-4.97c-.66,5.63-.88,9.39-.88,12.04,0,4.09,1.44,5.41,4.64,6.96v5.85h-17.78v-5.85c4.97-1.88,11.26-43.18,11.26-53.56ZM252.03,40.2l-4.53-32.47h-1.44c-1.77,14.25-2.98,24.74-3.86,32.47h9.83Z"/>
  <path class="cls-1" d="M271.58,70.46v-5.85c4.64,0,4.53-.44,4.53-7.62V14.36c0-7.18.11-7.62-4.53-7.62V.88h22.64v5.85c-5.63,0-6.07.44-6.07,7.62v50.25c6.96,0,9.17-4.64,10.71-28.94h4.64v34.79h-31.92Z"/>
</svg>