<?xml version="1.0" encoding="UTF-8"?>
<svg id="Livello_1" data-name="Livello 1" xmlns="http://www.w3.org/2000/svg" viewBox="0 0 317.15 51.81">
  <defs>
    <style>
      .cls-1 {
        fill: #fff;
      }
    </style>
  </defs>
  <path class="cls-1" d="M0,2.08v-.97h24.17c13.05,0,17.92,8.96,17.92,15.21,0,10.9-9.03,15.28-21.94,15.28h-3.4v12.15c0,2.15.42,5.97,5.07,5.97h4.72v.97H0v-.97h4.72c4.65,0,5-3.82,5.07-5.97V8.06c-.07-2.15-.42-5.97-5.07-5.97H0ZM16.73,2.08v28.54h2.64c7.92,0,15.14-2.71,15.14-14.3,0-7.64-3.89-14.24-11.87-14.24h-5.9Z"/>
  <path class="cls-1" d="M96.27,25.9c0,20.14-15.35,25.9-24.86,25.9s-24.79-5.76-24.79-25.9S61.83,0,71.41,0s24.86,5.76,24.86,25.9ZM88.28,25.9c0-9.65-3.89-24.86-16.87-24.86s-16.88,15.21-16.88,24.86,3.82,24.86,16.88,24.86,16.87-15.21,16.87-24.86Z"/>
  <path class="cls-1" d="M118.52,51.81c-7.78,0-11.39-2.08-13.89-2.08-.9,0-1.6.28-2.36.97h-.97v-25.42h.97c0,13.27,5.21,25.49,16.25,25.49,7.64.07,12.99-3.75,12.99-10.77,0-12.5-20-9.3-27.22-18.26-5.07-6.11-3.06-13.68,2.01-17.98,3.19-2.64,6.94-3.75,11.32-3.75,7.57,0,11.04,2.02,13.4,2.02.83,0,1.46-.21,2.15-.9h1.04v18.89h-1.04c0-7.36-5.7-18.96-15.56-18.96-4.1,0-8.2,1.11-10.63,4.44-2.5,3.33-1.59,8.54,1.88,11.11,8.89,6.73,28.54,4.44,28.54,19.44,0,9.58-8.82,15.76-18.89,15.76Z"/>
  <path class="cls-1" d="M183.12,1.11v28.4h-.97c0-11.04,0-27.43-15.69-27.43h-1.11v41.67c0,2.15.42,5.97,5.07,5.97h4.65v.97h-26.46v-.97h4.65c4.65,0,5.07-3.82,5.07-5.97V2.08h-1.11c-15.69,0-15.69,16.39-15.69,27.43h-.97V1.11h42.57Z"/>
  <path class="cls-1" d="M226.06,25.7v25h-43.75v-.97h4.72c4.65,0,5-3.82,5.07-5.97V8.06c-.07-2.15-.42-5.97-5.07-5.97h-4.72v-.97h42.91v21.6h-.97c0-4.31-.49-20.62-15.7-20.62h-9.51v22.08h1.53c10.97,0,10.97-7.01,10.97-14.23v-2.5h.97v34.44h-.97v-2.5c0-7.22,0-14.23-10.97-14.23h-1.53v24.58h7.64c18.47,0,18.4-13.68,18.4-24.03h.97Z"/>
  <path class="cls-1" d="M267.61,38.68c7.22,11.11,8.61,11.04,15.35,11.04v.97h-28.12v-.97h5.35c5.28,0,4.24-2.85,2.85-5.07l-11.46-18.13h-8.4v17.22c.07,2.15.42,5.97,5.07,5.97h4.72v.97h-26.53v-.97h4.72c4.65,0,5-3.82,5.07-5.97V8.06c-.07-2.15-.42-5.97-5.07-5.97h-4.72v-.97h23.82c12.22,0,17.92,5.69,17.98,12.29,0,3.54-2.22,8.61-9.72,11.32l9.1,13.96ZM243.17,25.63h2.29c9.51,0,15.14-2.99,15.14-12.22,0-7.64-4.93-11.32-11.8-11.32h-5.63v23.54Z"/>
  <path class="cls-1" d="M298.27,51.81c-7.78,0-11.39-2.08-13.89-2.08-.9,0-1.6.28-2.36.97h-.97v-25.42h.97c0,13.27,5.21,25.49,16.25,25.49,7.64.07,12.99-3.75,12.99-10.77,0-12.5-20-9.3-27.22-18.26-5.07-6.11-3.06-13.68,2.01-17.98,3.19-2.64,6.94-3.75,11.32-3.75,7.57,0,11.04,2.02,13.4,2.02.83,0,1.46-.21,2.15-.9h1.04v18.89h-1.04c0-7.36-5.7-18.96-15.56-18.96-4.1,0-8.2,1.11-10.62,4.44-2.5,3.33-1.6,8.54,1.87,11.11,8.89,6.73,28.54,4.44,28.54,19.44,0,9.58-8.82,15.76-18.89,15.76Z"/>
</svg>